<svg xmlns="http://www.w3.org/2000/svg" viewBox="0 0 51.37 51.8"><defs><style>.cls-1{fill:#f9a456;}.cls-2{fill:#4eb346;}.cls-3{fill:#ee243a;}.cls-4{fill:#f6e011;}.cls-5{font-size:17.9px;fill:#3e3e3f;font-family:NeutraText-Bold, Neutra Text;font-weight:700;}</style></defs><g id="Layer_2" data-name="Layer 2"><g id="Layer_2-2" data-name="Layer 2"><path class="cls-1" d="M28.61,13.23,50,29.23A4.79,4.79,0,0,1,50,36L29.76,50.48A4.8,4.8,0,0,1,23,50.32L2.06,34.92a4.8,4.8,0,0,1,0-6.77L21.84,13.07A4.8,4.8,0,0,1,28.61,13.23Z"/><path class="cls-2" d="M10.63,11l27.88,1.4a3.85,3.85,0,0,1,3.92,3.77L40.73,38a3.85,3.85,0,0,1-4.06,3.6L13.15,40.19a3.92,3.92,0,0,1-4-3.75L6.56,14.57A3.84,3.84,0,0,1,10.63,11Z"/><path class="cls-3" d="M28,7.73l21.34,16a4.79,4.79,0,0,1,0,6.77L29.11,45a4.79,4.79,0,0,1-6.77-.15L1.42,29.41a4.77,4.77,0,0,1,0-6.76L21.2,7.57A4.77,4.77,0,0,1,28,7.73Z"/><path class="cls-4" d="M28.43,1.48l21.34,16a4.8,4.8,0,0,1,0,6.77L29.57,38.73a4.78,4.78,0,0,1-6.76-.16L1.88,23.17a4.79,4.79,0,0,1,0-6.77L21.66,1.32A4.8,4.8,0,0,1,28.43,1.48Z"/><text class="cls-5" transform="translate(15.88 25.97) rotate(-1.27)">JS</text></g></g></svg>